<svg xmlns="http://www.w3.org/2000/svg" style="display: none;">
  <symbol id="icon-html" viewBox="0 0 24 24">
    <path d="M1.5 0h21l-1.91 21.563L11.977 24l-8.564-2.438L1.5 0zm7.031 9.75l-.232-2.718 10.059.003.23-2.622L5.412 4.41l.698 8.01h9.126l-.326 3.426-2.91.804-2.955-.81-.188-2.11H6.248l.33 4.171L12 19.351l5.379-1.443.744-8.157H8.531z" fill="#E44D26"/>
  </symbol>
 <symbol id="icon-css" viewBox="0 0 24 24">
    <path d="M1.5 0h21l-1.91 21.563L11.977 24l-8.565-2.438L1.5 0zm17.09 4.413L5.41 4.41l.213 2.622 10.125.002-.255 2.716h-6.64l.24 2.573h6.182l-.366 3.523-2.91.804-2.956-.81-.188-2.11h-2.61l.29 3.855L12 19.288l5.373-1.53L18.59 4.414z" fill="#1572B6"/>
  </symbol>
  <symbol id="icon-javascript" viewBox="0 0 24 24">
    <path d="M0 0h24v24H0V0zm22.034 18.276c-.175-1.095-.888-2.015-3.003-2.873-.736-.345-1.554-.585-1.797-1.14-.091-.33-.105-.51-.046-.705.15-.646.915-.84 1.515-.66.39.12.75.42.976.9 1.034-.676 1.034-.676 1.755-1.125-.27-.42-.404-.601-.586-.78-.63-.705-1.469-1.065-2.834-1.034l-.705.089c-.676.165-1.32.525-1.71 1.005-1.14 1.291-.811 3.541.569 4.471 1.365 1.02 3.361 1.244 3.616 2.205.24 1.17-.87 1.545-1.966 1.41-.811-.18-1.26-.586-1.755-1.336l-1.83 1.051c.21.48.45.689.81 1.109 1.74 1.756 6.09 1.666 6.871-1.004.029-.09.24-.705.074-1.65l.046.067zm-8.983-7.245h-2.248c0 1.938-.009 3.864-.009 5.805 0 1.232.063 2.363-.138 2.711-.33.689-1.18.601-1.566.48-.396-.196-.597-.466-.83-.855-.063-.105-.11-.196-.127-.196l-1.825 1.125c.305.63.75 1.172 1.324 1.517.855.51 2.004.675 3.207.405.783-.226 1.458-.691 1.811-1.411.51-.93.402-2.07.397-3.346.012-2.054 0-4.109 0-6.179l.004-.056z" fill="#F7DF1E"/>
  </symbol>
  <symbol id="icon-java" viewBox="0 0 128 128">
    <path fill="#0074BD" d="M47.617 98.12s-4.767 2.774 3.397 3.71c9.892 1.13 14.947.968 25.845-1.092 0 0 2.871 1.795 6.873 3.351-24.439 10.47-55.308-.607-36.115-5.969zm-2.988-13.665s-5.348 3.959 2.823 4.805c10.567 1.091 18.91 1.18 33.354-1.6 0 0 1.993 2.025 5.132 3.131-29.542 8.64-62.446.68-41.309-6.336z"/><path fill="#EA2D2E" d="M69.802 61.271c6.025 6.935-1.58 13.17-1.58 13.17s15.289-7.891 8.269-17.777c-6.559-9.215-11.587-13.792 15.635-29.58 0 .001-42.731 10.67-22.324 34.187z"/><path fill="#0074BD" d="M102.123 108.229s3.529 2.91-3.888 5.159c-14.102 4.272-58.706 5.56-71.094.171-4.451-1.938 3.899-4.625 6.526-5.192 2.739-.593 4.303-.485 4.303-.485-4.953-3.487-32.013 6.85-13.743 9.815 49.821 8.076 90.817-3.637 77.896-9.468zM49.912 70.294s-22.686 5.389-8.033 7.348c6.188.828 18.518.638 30.011-.326 9.39-.789 18.813-2.474 18.813-2.474s-3.308 1.419-5.704 3.053c-23.042 6.061-67.544 3.238-54.731-2.958 10.832-5.239 19.644-4.643 19.644-4.643zm40.697 22.747c23.421-12.167 12.591-23.86 5.032-22.285-1.848.385-2.677.72-2.677.72s.688-1.079 2-1.543c14.953-5.255 26.451 15.503-4.823 23.725 0-.002.359-.327.468-.617z"/><path fill="#EA2D2E" d="M76.491 1.587S89.459 14.563 64.188 34.51c-20.266 16.006-4.621 25.13-.007 35.559-11.831-10.673-20.509-20.07-14.688-28.815C58.041 28.42 81.722 22.195 76.491 1.587z"/><path fill="#0074BD" d="M52.214 126.021c22.476 1.437 57-.8 57.817-11.436 0 0-1.571 4.032-18.577 7.231-19.186 3.612-42.854 3.191-56.887.874 0 .001 2.875 2.381 17.647 3.331z"/>    
 </symbol>
  <symbol id="icon-php" viewBox="0 0 24 24">
    <path d="M7.01 10.207h-.944l-.515 2.648h.838c.556 0 .97-.105 1.242-.314.272-.21.455-.559.55-1.049.092-.47.05-.802-.124-.995-.175-.193-.523-.29-1.047-.29zM12 5.688C5.373 5.688 0 8.514 0 12s5.373 6.313 12 6.313S24 15.486 24 12c0-3.486-5.373-6.312-12-6.312zm-3.26 7.451c-.261.25-.575.438-.917.551-.336.108-.765.164-1.285.164H5.357l-.327 1.681H3.652l1.23-6.326h2.65c.797 0 1.378.209 1.744.628.366.418.476 1.002.33 1.752a2.836 2.836 0 0 1-.305.847c-.143.255-.33.49-.561.703zm4.024.715l.543-2.799c.063-.318.039-.536-.068-.651-.107-.116-.336-.174-.687-.174H11.46l-.704 3.625H9.388l1.23-6.327h1.367l-.327 1.682h1.218c.767 0 1.295.134 1.586.401s.378.7.263 1.299l-.572 2.944h-1.389zm7.597-2.265a2.782 2.782 0 0 1-.305.847c-.143.255-.33.49-.561.703a2.44 2.44 0 0 1-.917.551c-.336.108-.765.164-1.286.164h-1.18l-.327 1.682h-1.378l1.23-6.326h2.649c.797 0 1.378.209 1.744.628.366.417.477 1.001.331 1.751zM17.766 10.207h-.943l-.516 2.648h.838c.557 0 .971-.105 1.242-.314.272-.21.455-.559.551-1.049.092-.47.049-.802-.125-.995s-.524-.29-1.047-.29z" fill="#777BB3"/>
  </symbol>
  <symbol id="icon-oracle" viewBox="0 0 24 24">
    <path d="M16.412 4.412h-8.82a7.588 7.588 0 0 0-.008 15.176h8.828a7.588 7.588 0 0 0 0-15.176zm-.193 12.502H7.786a4.915 4.915 0 0 1 0-9.828h8.433a4.914 4.914 0 1 1 0 9.828z" fill="#F80000"/>
  </symbol>
  <symbol id="icon-csharp" viewBox="0 0 128 128">
    <path fill="#9B4F96" d="M115.4 30.7L67.1 2.9c-.8-.5-1.9-.7-3.1-.7-1.2 0-2.3.3-3.1.7l-48 27.9c-1.7 1-2.9 3.5-2.9 5.4v55.7c0 1.1.2 2.4 1 3.5l106.8-62c-.6-1.2-1.5-2.1-2.4-2.7z"/><path fill="#68217A" d="M10.7 95.3c.5.8 1.2 1.5 1.9 1.9l48.2 27.9c.8.5 1.9.7 3.1.7 1.2 0 2.3-.3 3.1-.7l48-27.9c1.7-1 2.9-3.5 2.9-5.4V36.1c0-.9-.1-1.9-.6-2.8l-106.6 62z"/><path fill="#fff" d="M85.3 76.1C81.1 83.5 73.1 88.5 64 88.5c-13.5 0-24.5-11-24.5-24.5s11-24.5 24.5-24.5c9.1 0 17.1 5 21.3 12.5l13-7.5c-6.8-11.9-19.6-20-34.3-20-21.8 0-39.5 17.7-39.5 39.5s17.7 39.5 39.5 39.5c14.6 0 27.4-8 34.2-19.8l-12.9-7.6zM97 66.2l.9-4.3h-4.2v-4.7h5.1L100 51h4.9l-1.2 6.1h3.8l1.2-6.1h4.8l-1.2 6.1h2.4v4.7h-3.3l-.9 4.3h4.2v4.7h-5.1l-1.2 6h-4.9l1.2-6h-3.8l-1.2 6h-4.8l1.2-6h-2.4v-4.7H97zm4.8 0h3.8l.9-4.3h-3.8l-.9 4.3z"/> 
  </symbol>
  <symbol id ="icon-react" viewBox= "0 0 128 128">
    <g fill="#61DAFB"><circle cx="64" cy="64" r="11.4"/><path d="M107.3 45.2c-2.2-.8-4.5-1.6-6.9-2.3.6-2.4 1.1-4.8 1.5-7.1 2.1-13.2-.2-22.5-6.6-26.1-1.9-1.1-4-1.6-6.4-1.6-7 0-15.9 5.2-24.9 13.9-9-8.7-17.9-13.9-24.9-13.9-2.4 0-4.5.5-6.4 1.6-6.4 3.7-8.7 13-6.6 26.1.4 2.3.9 4.7 1.5 7.1-2.4.7-4.7 1.4-6.9 2.3C8.2 50 1.4 56.6 1.4 64s6.9 14 19.3 18.8c2.2.8 4.5 1.6 6.9 2.3-.6 2.4-1.1 4.8-1.5 7.1-2.1 13.2.2 22.5 6.6 26.1 1.9 1.1 4 1.6 6.4 1.6 7.1 0 16-5.2 24.9-13.9 9 8.7 17.9 13.9 24.9 13.9 2.4 0 4.5-.5 6.4-1.6 6.4-3.7 8.7-13 6.6-26.1-.4-2.3-.9-4.7-1.5-7.1 2.4-.7 4.7-1.4 6.9-2.3 12.5-4.8 19.3-11.4 19.3-18.8s-6.8-14-19.3-18.8zM92.5 14.7c4.1 2.4 5.5 9.8 3.8 20.3-.3 2.1-.8 4.3-1.4 6.6-5.2-1.2-10.7-2-16.5-2.5-3.4-4.8-6.9-9.1-10.4-13 7.4-7.3 14.9-12.3 21-12.3 1.3 0 2.5.3 3.5.9zM81.3 74c-1.8 3.2-3.9 6.4-6.1 9.6-3.7.3-7.4.4-11.2.4-3.9 0-7.6-.1-11.2-.4-2.2-3.2-4.2-6.4-6-9.6-1.9-3.3-3.7-6.7-5.3-10 1.6-3.3 3.4-6.7 5.3-10 1.8-3.2 3.9-6.4 6.1-9.6 3.7-.3 7.4-.4 11.2-.4 3.9 0 7.6.1 11.2.4 2.2 3.2 4.2 6.4 6 9.6 1.9 3.3 3.7 6.7 5.3 10-1.7 3.3-3.4 6.6-5.3 10zm8.3-3.3c1.5 3.5 2.7 6.9 3.8 10.3-3.4.8-7 1.4-10.8 1.9 1.2-1.9 2.5-3.9 3.6-6 1.2-2.1 2.3-4.2 3.4-6.2zM64 97.8c-2.4-2.6-4.7-5.4-6.9-8.3 2.3.1 4.6.2 6.9.2 2.3 0 4.6-.1 6.9-.2-2.2 2.9-4.5 5.7-6.9 8.3zm-18.6-15c-3.8-.5-7.4-1.1-10.8-1.9 1.1-3.3 2.3-6.8 3.8-10.3 1.1 2 2.2 4.1 3.4 6.1 1.2 2.2 2.4 4.1 3.6 6.1zm-7-25.5c-1.5-3.5-2.7-6.9-3.8-10.3 3.4-.8 7-1.4 10.8-1.9-1.2 1.9-2.5 3.9-3.6 6-1.2 2.1-2.3 4.2-3.4 6.2zM64 30.2c2.4 2.6 4.7 5.4 6.9 8.3-2.3-.1-4.6-.2-6.9-.2-2.3 0-4.6.1-6.9.2 2.2-2.9 4.5-5.7 6.9-8.3zm22.2 21l-3.6-6c3.8.5 7.4 1.1 10.8 1.9-1.1 3.3-2.3 6.8-3.8 10.3-1.1-2.1-2.2-4.2-3.4-6.2zM31.7 35c-1.7-10.5-.3-17.9 3.8-20.3 1-.6 2.2-.9 3.5-.9 6 0 13.5 4.9 21 12.3-3.5 3.8-7 8.2-10.4 13-5.8.5-11.3 1.4-16.5 2.5-.6-2.3-1-4.5-1.4-6.6zM7 64c0-4.7 5.7-9.7 15.7-13.4 2-.8 4.2-1.5 6.4-2.1 1.6 5 3.6 10.3 6 15.6-2.4 5.3-4.5 10.5-6 15.5C15.3 75.6 7 69.6 7 64zm28.5 49.3c-4.1-2.4-5.5-9.8-3.8-20.3.3-2.1.8-4.3 1.4-6.6 5.2 1.2 10.7 2 16.5 2.5 3.4 4.8 6.9 9.1 10.4 13-7.4 7.3-14.9 12.3-21 12.3-1.3 0-2.5-.3-3.5-.9zM96.3 93c1.7 10.5.3 17.9-3.8 20.3-1 .6-2.2.9-3.5.9-6 0-13.5-4.9-21-12.3 3.5-3.8 7-8.2 10.4-13 5.8-.5 11.3-1.4 16.5-2.5.6 2.3 1 4.5 1.4 6.6zm9-15.6c-2 .8-4.2 1.5-6.4 2.1-1.6-5-3.6-10.3-6-15.6 2.4-5.3 4.5-10.5 6-15.5 13.8 4 22.1 10 22.1 15.6 0 4.7-5.8 9.7-15.7 13.4z"/></g>
  </symbol>
    <symbol id="icon-docker" viewBox="0 0 128 128">
        <path fill-rule="evenodd" clip-rule="evenodd" fill="#3A4D54" d="M73.8 50.8h11.3v11.5h5.7c2.6 0 5.3-.5 7.8-1.3 1.2-.4 2.6-1 3.8-1.7-1.6-2.1-2.4-4.7-2.6-7.3-.3-3.5.4-8.1 2.8-10.8l1.2-1.4 1.4 1.1c3.6 2.9 6.5 6.8 7.1 11.4 4.3-1.3 9.3-1 13.1 1.2l1.5.9-.8 1.6c-3.2 6.2-9.9 8.2-16.4 7.8-9.8 24.3-31 35.8-56.8 35.8-13.3 0-25.5-5-32.5-16.8l-.1-.2-1-2.1c-2.4-5.2-3.1-10.9-2.6-16.6l.2-1.7h9.6V50.8h11.3V39.6h22.5V28.3h13.5v22.5z"/><path fill="#00AADA" d="M110.4 55.1c.8-5.9-3.6-10.5-6.4-12.7-3.1 3.6-3.6 13.2 1.3 17.2-2.8 2.4-8.5 4.7-14.5 4.7H18.6c-.6 6.2.5 11.9 3 16.8l.8 1.5c.5.9 1.1 1.7 1.7 2.6 3 .2 5.7.3 8.2.2 4.9-.1 8.9-.7 12-1.7.5-.2.9.1 1.1.5.2.5-.1.9-.5 1.1-.4.1-.8.3-1.3.4-2.4.7-5 1.1-8.3 1.3h-.6c-1.3.1-2.7.1-4.2.1-1.6 0-3.1 0-4.9-.1 6 6.8 15.4 10.8 27.2 10.8 25 0 46.2-11.1 55.5-35.9 6.7.7 13.1-1 16-6.7-4.5-2.7-10.5-1.8-13.9-.1z"/><path fill="#28B8EB" d="M110.4 55.1c.8-5.9-3.6-10.5-6.4-12.7-3.1 3.6-3.6 13.2 1.3 17.2-2.8 2.4-8.5 4.7-14.5 4.7h-68c-.3 9.5 3.2 16.7 9.5 21 4.9-.1 8.9-.7 12-1.7.5-.2.9.1 1.1.5.2.5-.1.9-.5 1.1-.4.1-.8.3-1.3.4-2.4.7-5.2 1.2-8.5 1.4l-.1-.1c8.5 4.4 20.8 4.3 35-1.1 15.8-6.1 30.6-17.7 40.9-30.9-.2.1-.4.1-.5.2z"/><path fill="#028BB8" d="M18.7 71.8c.4 3.3 1.4 6.4 2.9 9.3l.8 1.5c.5.9 1.1 1.7 1.7 2.6 3 .2 5.7.3 8.2.2 4.9-.1 8.9-.7 12-1.7.5-.2.9.1 1.1.5.2.5-.1.9-.5 1.1-.4.1-.8.3-1.3.4-2.4.7-5.2 1.2-8.5 1.4h-.4c-1.3.1-2.7.1-4.1.1-1.6 0-3.2 0-4.9-.1 6 6.8 15.5 10.8 27.3 10.8 21.4 0 40-8.1 50.8-26H18.7v-.1z"/><path fill="#019BC6" d="M23.5 71.8c1.3 5.8 4.3 10.4 8.8 13.5 4.9-.1 8.9-.7 12-1.7.5-.2.9.1 1.1.5.2.5-.1.9-.5 1.1-.4.1-.8.3-1.3.4-2.4.7-5.2 1.2-8.6 1.4 8.5 4.4 20.8 4.3 34.9-1.1 8.5-3.3 16.8-8.2 24.2-14.1H23.5z"/><path fill-rule="evenodd" clip-rule="evenodd" fill="#00ACD3" d="M28.4 52.7h9.8v9.8h-9.8v-9.8zm.8.8h.8v8.1h-.8v-8.1zm1.4 0h.8v8.1h-.8v-8.1zm1.5 0h.8v8.1h-.8v-8.1zm1.5 0h.8v8.1h-.8v-8.1zm1.5 0h.8v8.1h-.8v-8.1zm1.5 0h.8v8.1h-.8v-8.1zm3-12h9.8v9.8h-9.8v-9.8zm.9.8h.8v8.1h-.8v-8.1zm1.4 0h.8v8.1h-.8v-8.1zm1.5 0h.8v8.1h-.8v-8.1zm1.5 0h.8v8.1h-.8v-8.1zm1.4 0h.8v8.1h-.8v-8.1zm1.5 0h.8v8.1h-.8v-8.1z"/><path fill-rule="evenodd" clip-rule="evenodd" fill="#23C2EE" d="M39.6 52.7h9.8v9.8h-9.8v-9.8zm.9.8h.8v8.1h-.8v-8.1zm1.4 0h.8v8.1h-.8v-8.1zm1.5 0h.8v8.1h-.8v-8.1zm1.5 0h.8v8.1h-.8v-8.1zm1.4 0h.8v8.1h-.8v-8.1zm1.5 0h.8v8.1h-.8v-8.1z"/><path fill-rule="evenodd" clip-rule="evenodd" fill="#00ACD3" d="M50.9 52.7h9.8v9.8h-9.8v-9.8zm.8.8h.8v8.1h-.8v-8.1zm1.5 0h.8v8.1h-.8v-8.1zm1.5 0h.8v8.1h-.8v-8.1zm1.4 0h.8v8.1h-.8v-8.1zm1.5 0h.8v8.1h-.8v-8.1zm1.5 0h.8v8.1h-.8v-8.1z"/><path fill-rule="evenodd" clip-rule="evenodd" fill="#23C2EE" d="M50.9 41.5h9.8v9.8h-9.8v-9.8zm.8.8h.8v8.1h-.8v-8.1zm1.5 0h.8v8.1h-.8v-8.1zm1.5 0h.8v8.1h-.8v-8.1zm1.4 0h.8v8.1h-.8v-8.1zm1.5 0h.8v8.1h-.8v-8.1zm1.5 0h.8v8.1h-.8v-8.1zm3.1 10.4H72v9.8h-9.8v-9.8zm.8.8h.8v8.1H63v-8.1zm1.5 0h.8v8.1h-.8v-8.1zm1.4 0h.8v8.1h-.8v-8.1zm1.5 0h.8v8.1h-.8v-8.1zm1.5 0h.8v8.1h-.8v-8.1zm1.5 0h.8v8.1h-.8v-8.1z"/><path fill-rule="evenodd" clip-rule="evenodd" fill="#00ACD3" d="M62.2 41.5H72v9.8h-9.8v-9.8zm.8.8h.8v8.1H63v-8.1zm1.5 0h.8v8.1h-.8v-8.1zm1.4 0h.8v8.1h-.8v-8.1zm1.5 0h.8v8.1h-.8v-8.1zm1.5 0h.8v8.1h-.8v-8.1zm1.5 0h.8v8.1h-.8v-8.1z"/><path fill-rule="evenodd" clip-rule="evenodd" fill="#23C2EE" d="M62.2 30.2H72V40h-9.8v-9.8zm.8.8h.8v8.1H63V31zm1.5 0h.8v8.1h-.8V31zm1.4 0h.8v8.1h-.8V31zm1.5 0h.8v8.1h-.8V31zm1.5 0h.8v8.1h-.8V31zm1.5 0h.8v8.1h-.8V31z"/><path fill-rule="evenodd" clip-rule="evenodd" fill="#00ACD3" d="M73.5 52.7h9.8v9.8h-9.8v-9.8zm.8.8h.8v8.1h-.8v-8.1zm1.4 0h.8v8.1h-.8v-8.1zm1.5 0h.8v8.1h-.8v-8.1zm1.5 0h.8v8.1h-.8v-8.1zm1.5 0h.8v8.1h-.8v-8.1zm1.5 0h.8v8.1h-.8v-8.1z"/><path fill-rule="evenodd" clip-rule="evenodd" fill="#D4EEF1" d="M48.8 78.3c1.5 0 2.7 1.2 2.7 2.7 0 1.5-1.2 2.7-2.7 2.7-1.5 0-2.7-1.2-2.7-2.7 0-1.5 1.2-2.7 2.7-2.7"/><path fill-rule="evenodd" clip-rule="evenodd" fill="#3A4D54" d="M48.8 79.1c.2 0 .5 0 .7.1-.2.1-.4.4-.4.7 0 .4.4.8.8.8.3 0 .6-.2.7-.4.1.2.1.5.1.7 0 1.1-.9 1.9-1.9 1.9-1.1 0-1.9-.9-1.9-1.9 0-1 .8-1.9 1.9-1.9M1.1 72.8h125.4c-2.7-.7-8.6-1.6-7.7-5.2-5 5.7-16.9 4-20 1.2-3.4 4.9-23 3-24.3-.8-4.2 5-17.3 5-21.5 0-1.4 3.8-21 5.7-24.3.8-3 2.8-15 4.5-20-1.2 1.1 3.5-4.9 4.5-7.6 5.2"/><path fill="#BFDBE0" d="M56 97.8c-6.7-3.2-10.3-7.5-12.4-12.2-2.5.7-5.5 1.2-8.9 1.4-1.3.1-2.7.1-4.1.1-1.7 0-3.4 0-5.2-.1 6 6 13.6 10.7 27.5 10.8H56z"/><path fill="#D4EEF1" d="M46.1 89.9c-.9-1.3-1.8-2.8-2.5-4.3-2.5.7-5.5 1.2-8.9 1.4 2.3 1.2 5.7 2.4 11.4 2.9z"/>
    </symbol>
    <symbol id="icon-git" viewBox="0 0 128 128">
    <path fill="#F34F29" d="M124.737 58.378L69.621 3.264c-3.172-3.174-8.32-3.174-11.497 0L46.68 14.71l14.518 14.518c3.375-1.139 7.243-.375 9.932 2.314 2.703 2.706 3.461 6.607 2.294 9.993l13.992 13.993c3.385-1.167 7.292-.413 9.994 2.295 3.78 3.777 3.78 9.9 0 13.679a9.673 9.673 0 01-13.683 0 9.677 9.677 0 01-2.105-10.521L68.574 47.933l-.002 34.341a9.708 9.708 0 012.559 1.828c3.778 3.777 3.778 9.898 0 13.683-3.779 3.777-9.904 3.777-13.679 0-3.778-3.784-3.778-9.905 0-13.683a9.65 9.65 0 013.167-2.11V47.333a9.581 9.581 0 01-3.167-2.111c-2.862-2.86-3.551-7.06-2.083-10.576L41.056 20.333 3.264 58.123a8.133 8.133 0 000 11.5l55.117 55.114c3.174 3.174 8.32 3.174 11.499 0l54.858-54.858a8.135 8.135 0 00-.001-11.501z"/>
    </symbol>
    <symbol id="icon-code" viewBox="0 0 128 128"></symbol>
    <symbol id="icon-typescript" viewBox="0 0 128 128">
        <path fill="#fff" d="M22.67 47h99.67v73.67H22.67z"/><path data-name="original" fill="#007acc" d="M1.5 63.91v62.5h125v-125H1.5zm100.73-5a15.56 15.56 0 017.82 4.5 20.58 20.58 0 013 4c0 .16-5.4 3.81-8.69 5.85-.12.08-.6-.44-1.13-1.23a7.09 7.09 0 00-5.87-3.53c-3.79-.26-6.23 1.73-6.21 5a4.58 4.58 0 00.54 2.34c.83 1.73 2.38 2.76 7.24 4.86 8.95 3.85 12.78 6.39 15.16 10 2.66 4 3.25 10.46 1.45 15.24-2 5.2-6.9 8.73-13.83 9.9a38.32 38.32 0 01-9.52-.1 23 23 0 01-12.72-6.63c-1.15-1.27-3.39-4.58-3.25-4.82a9.34 9.34 0 011.15-.73L82 101l3.59-2.08.75 1.11a16.78 16.78 0 004.74 4.54c4 2.1 9.46 1.81 12.16-.62a5.43 5.43 0 00.69-6.92c-1-1.39-3-2.56-8.59-5-6.45-2.78-9.23-4.5-11.77-7.24a16.48 16.48 0 01-3.43-6.25 25 25 0 01-.22-8c1.33-6.23 6-10.58 12.82-11.87a31.66 31.66 0 019.49.26zm-29.34 5.24v5.12H56.66v46.23H45.15V69.26H28.88v-5a49.19 49.19 0 01.12-5.17C29.08 59 39 59 51 59h21.83z"/>
    </symbol>
    <symbol id="icon-tailwind" viewBox="0 0 128 128">
        <path d="M64.004 25.602c-17.067 0-27.73 8.53-32 25.597 6.398-8.531 13.867-11.73 22.398-9.597 4.871 1.214 8.352 4.746 12.207 8.66C72.883 56.629 80.145 64 96.004 64c17.066 0 27.73-8.531 32-25.602-6.399 8.536-13.867 11.735-22.399 9.602-4.87-1.215-8.347-4.746-12.207-8.66-6.27-6.367-13.53-13.738-29.394-13.738zM32.004 64c-17.066 0-27.73 8.531-32 25.602C6.402 81.066 13.87 77.867 22.402 80c4.871 1.215 8.352 4.746 12.207 8.66 6.274 6.367 13.536 13.738 29.395 13.738 17.066 0 27.73-8.53 32-25.597-6.399 8.531-13.867 11.73-22.399 9.597-4.87-1.214-8.347-4.746-12.207-8.66C55.128 71.371 47.868 64 32.004 64zm0 0" fill="#38bdf8"/>
    </symbol>
    <symbol id="icon-redis" viewBox="0 0 128 128">
        <path fill="#A41E11" d="M121.8 93.1c-6.7 3.5-41.4 17.7-48.8 21.6-7.4 3.9-11.5 3.8-17.3 1S13 98.1 6.3 94.9c-3.3-1.6-5-2.9-5-4.2V78s48-10.5 55.8-13.2c7.8-2.8 10.4-2.9 17-.5s46.1 9.5 52.6 11.9v12.5c0 1.3-1.5 2.7-4.9 4.4z"/><path fill="#D82C20" d="M121.8 80.5C115.1 84 80.4 98.2 73 102.1c-7.4 3.9-11.5 3.8-17.3 1-5.8-2.8-42.7-17.7-49.4-20.9C-.3 79-.5 76.8 6 74.3c6.5-2.6 43.2-17 51-19.7 7.8-2.8 10.4-2.9 17-.5s41.1 16.1 47.6 18.5c6.7 2.4 6.9 4.4.2 7.9z"/><path fill="#A41E11" d="M121.8 72.5C115.1 76 80.4 90.2 73 94.1c-7.4 3.8-11.5 3.8-17.3 1C49.9 92.3 13 77.4 6.3 74.2c-3.3-1.6-5-2.9-5-4.2V57.3s48-10.5 55.8-13.2c7.8-2.8 10.4-2.9 17-.5s46.1 9.5 52.6 11.9V68c0 1.3-1.5 2.7-4.9 4.5z"/><path fill="#D82C20" d="M121.8 59.8c-6.7 3.5-41.4 17.7-48.8 21.6-7.4 3.8-11.5 3.8-17.3 1C49.9 79.6 13 64.7 6.3 61.5s-6.8-5.4-.3-7.9c6.5-2.6 43.2-17 51-19.7 7.8-2.8 10.4-2.9 17-.5s41.1 16.1 47.6 18.5c6.7 2.4 6.9 4.4.2 7.9z"/><path fill="#A41E11" d="M121.8 51c-6.7 3.5-41.4 17.7-48.8 21.6-7.4 3.8-11.5 3.8-17.3 1C49.9 70.9 13 56 6.3 52.8c-3.3-1.6-5.1-2.9-5.1-4.2V35.9s48-10.5 55.8-13.2c7.8-2.8 10.4-2.9 17-.5s46.1 9.5 52.6 11.9v12.5c.1 1.3-1.4 2.6-4.8 4.4z"/><path fill="#D82C20" d="M121.8 38.3C115.1 41.8 80.4 56 73 59.9c-7.4 3.8-11.5 3.8-17.3 1S13 43.3 6.3 40.1s-6.8-5.4-.3-7.9c6.5-2.6 43.2-17 51-19.7 7.8-2.8 10.4-2.9 17-.5s41.1 16.1 47.6 18.5c6.7 2.4 6.9 4.4.2 7.8z"/><path fill="#fff" d="M80.4 26.1l-10.8 1.2-2.5 5.8-3.9-6.5-12.5-1.1 9.3-3.4-2.8-5.2 8.8 3.4 8.2-2.7L72 23zM66.5 54.5l-20.3-8.4 29.1-4.4z"/><ellipse fill="#fff" cx="38.4" cy="35.4" rx="15.5" ry="6"/><path fill="#7A0C00" d="M93.3 27.7l17.2 6.8-17.2 6.8z"/><path fill="#AD2115" d="M74.3 35.3l19-7.6v13.6l-1.9.8z"/>
    </symbol>
    <symbol id="icon-postman" viewBox="0 0 128 128">
        <path fill="#f37036" d="M113.117 26.066C92.168-1.062 53.191-6.07 26.062 14.883c-27.125 20.953-32.128 59.93-11.175 87.055 20.957 27.124 59.937 32.124 87.058 11.167 27.114-20.953 32.118-59.918 11.172-87.039Zm0 0"/>
    <path fill="#fff" d="M91.078 24.164a10.038 10.038 0 0 0-5.781 2.426 10.028 10.028 0 0 0-1.54 13.465 10.028 10.028 0 0 0 13.276 2.715h.002v.001l.156.155a10.63 10.63 0 0 0 1.965-1.45A10.341 10.341 0 0 0 99 27.107v-.002l-8.844 8.789-.156-.155 8.844-8.793a10.038 10.038 0 0 0-7.766-2.78zM79.434 38.551c-4.24-.007-11.163 4.799-28.067 21.703l.084.086c-.092-.032-.185-.035-.185-.035l-6.364 6.308a1.035 1.035 0 0 0 .93 1.762l10.914-2.328a.307.307 0 0 0 .092-.17l.242.25-3.72 3.69h-.18l-22.086 22.26 7.086 6.824a1.254 1.254 0 0 0 1.476.149 1.327 1.327 0 0 0 .645-1.356l-1.035-4.5a.534.534 0 0 1 0-.62 117.285 117.285 0 0 0 26.738-17.583l-4.535-4.537.086-.014-2.69-2.689.172-.174.182.186-.094.091 7.137 7.293v-.003c13.68-12.954 23.39-23.367 20.865-30.375a3.83 3.83 0 0 0-1.107-2.208v.004a3.778 3.778 0 0 0-.483-.306c-.083-.088-.156-.178-.244-.264l-.066.066a3.778 3.778 0 0 0-.582-.29l.289-.292c-1.796-1.6-3.28-2.924-5.5-2.93zM30.94 92.21l-5.171 5.172v.004a1.03 1.03 0 0 0-.457 1.125 1.035 1.035 0 0 0 .921.789l12.672.875-7.965-7.965z"/>
    <path fill="#f37036" d="M91.95 23.31a11.047 11.047 0 0 0-7.759 3.17 10.988 10.988 0 0 0-2.39 11.641c-4.741-2.03-11.155 1.51-31.106 21.457a.932.932 0 0 0-.037.094 1.242 1.242 0 0 0-.119.062l-6.309 6.364a1.97 1.97 0 0 0-.363 2.324 2.012 2.012 0 0 0 1.707.984l.313-.203 8.424-1.797-4.03 4.067a.873.873 0 0 0-.054.166l-19.75 19.799a.798.798 0 0 0-.192.238l-5.086 5.09a1.967 1.967 0 0 0-.414 2.043 1.995 1.995 0 0 0 1.656 1.265l12.618.88a1.01 1.01 0 0 0 .52-.415.886.886 0 0 0 0-1.035l-.026-.025a2.243 2.243 0 0 0 .705-.58 2.237 2.237 0 0 0 .406-1.876l-.984-4.187a126.725 126.725 0 0 0 26.334-16.861 1.091 1.091 0 0 0 .248.103c.254-.019.492-.128.672-.308 13.55-12.83 21.515-21.622 21.515-28.602a8.03 8.03 0 0 0-.431-2.85 10.957 10.957 0 0 0 3.845.83l-.015.004a11.219 11.219 0 0 0 5.183-1.45.775.775 0 0 0 .004.001.835.835 0 0 0 .617-.055 9.398 9.398 0 0 0 2.07-1.652 10.873 10.873 0 0 0 3.258-7.758 10.873 10.873 0 0 0-3.257-7.758.93.93 0 0 0-.118-.091 11.045 11.045 0 0 0-7.656-3.078zm-.087 1.772a9.27 9.27 0 0 1 5.586 1.914l-8.068 8.117a.84.84 0 0 0-.076.098.83.83 0 0 0-.239.55.832.832 0 0 0 .313.65h.002l6.1 6.1a9.044 9.044 0 0 1-10.028-1.913c-2.586-2.6-3.336-6.504-1.953-9.891 1.383-3.39 4.68-5.605 8.363-5.625zm7.12 3.432a8.87 8.87 0 0 1 2.033 5.674 9.15 9.15 0 0 1-2.688 6.464 9.989 9.989 0 0 1-1.098.895L92.307 36.7l-.963-.963.265-.265 7.373-6.96zm-.366 4.193a.777.777 0 0 0-.55.031.731.731 0 0 0-.36.426.73.73 0 0 0 .05.559 2.226 2.226 0 0 1-.257 2.328.64.64 0 0 0-.195.488c.004.184.07.36.195.492a.58.58 0 0 0 .414 0 .68.68 0 0 0 .672-.207 3.573 3.573 0 0 0 .465-3.777v.004a.777.777 0 0 0-.434-.344zM79.34 39.43a5.584 5.584 0 0 1 3.31 1.226 4.756 4.756 0 0 0-2.681 1.34L57.162 64.701l-4.476-4.476c11.828-11.772 19.06-17.921 23.556-19.936a5.584 5.584 0 0 1 3.098-.86zm3.965 2.96a2.895 2.895 0 0 1 2.043.844 2.786 2.786 0 0 1 .879 2.121 2.869 2.869 0 0 1-.985 2.07l-24.25 21.106-2.617-2.617 22.887-22.68a2.895 2.895 0 0 1 2.043-.843zm2.994 6.698c-1.69 6.702-10.647 15.783-19.987 24.607l-3.777-3.773L86.3 49.088zM51.367 61.547l.274.27 3.513 3.513-9.63 2.06 5.843-5.843zm5.793 5.84.004.004 1.168 1.195a1.086 1.086 0 0 0 .018.084l.078.012.248.254.82.84-5.385.66 3.05-3.05zm3.867 4.076 3.578 3.576A126.992 126.992 0 0 1 38.75 91.695a1.44 1.44 0 0 0-.777 1.653l1.035 4.5a.31.31 0 0 1 0 .363.31.31 0 0 1-.414 0l-6.102-6.152L51.3 72.975l9.728-1.512zm-29.933 21.94.869.814 4.492 4.492-10.016-.648 4.655-4.659z"/>
    </symbol>
    <symbol id="icon-dotnet" viewBox="0 0 128 128">
        <svg xmlns="http://www.w3.org/2000/svg" viewBox="0 0 128 128"><g fill="#623697"><path d="M61.195 0h4.953c12.918.535 25.688 4.89 36.043 12.676 9.809 7.289 17.473 17.437 21.727 28.906 2.441 6.387 3.664 13.18 4.082 19.992v4.211c-.414 11.293-3.664 22.52-9.73 32.082-6.801 10.895-16.922 19.73-28.727 24.828A64.399 64.399 0 0165.082 128h-2.144c-11.735-.191-23.41-3.66-33.297-9.992-11.196-7.113-20.114-17.785-25.028-30.117C1.891 81.19.441 74.02 0 66.812v-4.957c.504-14.39 5.953-28.609 15.41-39.496C23.168 13.31 33.5 6.48 44.887 2.937 50.172 1.27 55.676.41 61.195 0M25.191 37.523c-.03 12.153-.011 24.305-.011 36.454 1.43.011 2.86.011 4.293.011-.075-10.433.101-20.863-.106-31.293.48.907.918 1.84 1.465 2.707C37.035 54.91 43.105 64.5 49.309 74c1.738-.023 3.476-.023 5.214.004-.003-12.16-.007-24.32.004-36.48a308.076 308.076 0 00-4.25-.012c.075 10.32-.136 20.64.125 30.949-6.507-10.352-13.101-20.645-19.695-30.945a370.85 370.85 0 00-5.516.007m38.844-.011c-.129 12.16-.004 24.32-.047 36.476 6.469-.015 12.938.024 19.41-.02a83.36 83.36 0 01.024-3.952c-5.012-.016-10.027.007-15.043-.02-.074-4.21-.004-8.426-.04-12.637 4.395-.078 8.79.012 13.18-.047-.011-1.277-.011-2.554-.019-3.832-4.387.141-8.773-.054-13.164.012.012-4.023.02-8.05.02-12.078 4.699 0 9.398-.02 14.093.012-.008-1.301 0-2.606.016-3.906-6.145-.016-12.29-.008-18.43-.008m22.602.054c.004 1.266.004 2.528.008 3.79 3.488-.04 6.972.109 10.46.035-.023 10.863.004 21.718-.011 32.574 1.46.043 2.93.035 4.39-.09-.12-5.992.118-11.988-.156-17.977.067-2.699-.07-5.394.117-8.09.106-2.14-.277-4.277-.035-6.417 3.516.047 7.035.015 10.55.015a59.774 59.774 0 01.075-3.832c-8.469-.105-16.937-.094-25.398-.008M13.55 69.094c-1.977.91-2.106 4.023-.149 5.027 1.72 1.18 4.305-.371 4.227-2.41.133-2.004-2.29-3.688-4.078-2.617m29.23 15.289c-4.277 3.469-4.226 11.195.5 14.25 2.668 1.695 6.102 1.344 8.922.215.012-.621.027-1.239.05-1.86-2.671 1.395-6.41 1.68-8.675-.61-2.965-3.237-2.297-9.269 1.613-11.476 2.211-1.164 4.907-.824 7.086.239-.007-.66-.004-1.32 0-1.98-3.097-1.099-6.922-1.04-9.496 1.222m17.207 2.71c-1.89.22-3.758 1.22-4.633 2.966-1.253 2.496-1.109 5.867.864 7.96 2.035 2.297 5.945 2.32 8.18.297 2.425-2.308 2.699-6.468.757-9.164-1.148-1.629-3.273-2.183-5.168-2.058m17.887 2.722c-1.66 2.883-1.332 7.25 1.598 9.211 2.183 1.22 4.933.832 7.074-.308-.004-.617.004-1.235.031-1.848-1.687 1.07-3.937 1.856-5.812.777-1.309-.722-1.704-2.257-1.914-3.625 2.875-.039 5.746-.082 8.625-.074-.075-1.828-.118-3.894-1.45-5.308-2.199-2.43-6.644-1.657-8.152 1.175m-8.414-2.336v12.008c.652 0 1.312 0 1.973.004.023-2.195-.04-4.394.023-6.594.016-1.27.527-2.558 1.484-3.414.801-.605 1.883-.27 2.801-.246-.012-.636-.02-1.27-.023-1.902-1.793-.398-3.336.652-4.242 2.117-.02-.633-.04-1.266-.051-1.894-.656-.024-1.313-.051-1.965-.079zm0 0"/><path d="M58.758 89.223c1.652-.805 4.023-.41 4.945 1.3 1.05 1.887 1.027 4.383-.137 6.211-1.52 2.286-5.527 1.786-6.523-.742-1.008-2.258-.617-5.484 1.715-6.77zm0 0M79.04 92.414c.046-1.574 1.144-3.137 2.726-3.48.976-.164 2.097.007 2.773.793.672.714.813 1.714.98 2.64-2.16.012-4.32-.031-6.48.047zm0 0"/></g></svg>
    </symbol>
    <symbol id="icon-mysql" viewBox="0 0 128 128">
        <path fill="#00618A" d="M116.948 97.807c-6.863-.187-12.104.452-16.585 2.341-1.273.537-3.305.552-3.513 2.147.7.733.809 1.829 1.365 2.731 1.07 1.73 2.876 4.052 4.488 5.268 1.762 1.33 3.577 2.751 5.465 3.902 3.358 2.047 7.107 3.217 10.34 5.268 1.906 1.21 3.799 2.733 5.658 4.097.92.675 1.537 1.724 2.732 2.147v-.194c-.628-.8-.79-1.898-1.366-2.733l-2.537-2.537c-2.48-3.292-5.629-6.184-8.976-8.585-2.669-1.916-8.642-4.504-9.755-7.609l-.195-.195c1.892-.214 4.107-.898 5.854-1.367 2.934-.786 5.556-.583 8.585-1.365l4.097-1.171v-.78c-1.531-1.571-2.623-3.651-4.292-5.073-4.37-3.72-9.138-7.437-14.048-10.537-2.724-1.718-6.089-2.835-8.976-4.292-.971-.491-2.677-.746-3.318-1.562-1.517-1.932-2.342-4.382-3.511-6.633-2.449-4.717-4.854-9.868-7.024-14.831-1.48-3.384-2.447-6.72-4.293-9.756-8.86-14.567-18.396-23.358-33.169-32-3.144-1.838-6.929-2.563-10.929-3.513-2.145-.129-4.292-.26-6.438-.391-1.311-.546-2.673-2.149-3.902-2.927C17.811 4.565 5.257-2.16 1.633 6.682c-2.289 5.581 3.421 11.025 5.462 13.854 1.434 1.982 3.269 4.207 4.293 6.438.674 1.467.79 2.938 1.367 4.489 1.417 3.822 2.652 7.98 4.487 11.511.927 1.788 1.949 3.67 3.122 5.268.718.981 1.951 1.413 2.145 2.927-1.204 1.686-1.273 4.304-1.95 6.44-3.05 9.615-1.899 21.567 2.537 28.683 1.36 2.186 4.567 6.871 8.975 5.073 3.856-1.57 2.995-6.438 4.098-10.732.249-.973.096-1.689.585-2.341v.195l3.513 7.024c2.6 4.187 7.212 8.562 11.122 11.514 2.027 1.531 3.623 4.177 6.244 5.073v-.196h-.195c-.508-.791-1.303-1.119-1.951-1.755-1.527-1.497-3.225-3.358-4.487-5.073-3.556-4.827-6.698-10.11-9.561-15.609-1.368-2.627-2.557-5.523-3.709-8.196-.444-1.03-.438-2.589-1.364-3.122-1.263 1.958-3.122 3.542-4.098 5.854-1.561 3.696-1.762 8.204-2.341 12.878-.342.122-.19.038-.391.194-2.718-.655-3.672-3.452-4.683-5.853-2.554-6.07-3.029-15.842-.781-22.829.582-1.809 3.21-7.501 2.146-9.172-.508-1.666-2.184-2.63-3.121-3.903-1.161-1.574-2.319-3.646-3.124-5.464-2.09-4.731-3.066-10.044-5.267-14.828-1.053-2.287-2.832-4.602-4.293-6.634-1.617-2.253-3.429-3.912-4.683-6.635-.446-.968-1.051-2.518-.391-3.513.21-.671.508-.951 1.171-1.17 1.132-.873 4.284.29 5.462.779 3.129 1.3 5.741 2.538 8.392 4.294 1.271.844 2.559 2.475 4.097 2.927h1.756c2.747.631 5.824.195 8.391.975 4.536 1.378 8.601 3.523 12.292 5.854 11.246 7.102 20.442 17.21 26.732 29.269 1.012 1.942 1.45 3.794 2.341 5.854 1.798 4.153 4.063 8.426 5.852 12.488 1.786 4.052 3.526 8.141 6.05 11.513 1.327 1.772 6.451 2.723 8.781 3.708 1.632.689 4.307 1.409 5.854 2.34 2.953 1.782 5.815 3.903 8.586 5.855 1.383.975 5.64 3.116 5.852 4.879zM29.729 23.466c-1.431-.027-2.443.156-3.513.389v.195h.195c.683 1.402 1.888 2.306 2.731 3.513.65 1.367 1.301 2.732 1.952 4.097l.194-.193c1.209-.853 1.762-2.214 1.755-4.294-.484-.509-.555-1.147-.975-1.755-.556-.811-1.635-1.272-2.339-1.952z"/>
    </symbol>
    <symbol id="icon-springboot" viewBox="0 0 128 128">
        <path d="M116.452 6.643a59.104 59.104 0 01-6.837 12.136A64.249 64.249 0 0064.205-.026C28.984-.026 0 28.982 0 64.242a64.316 64.316 0 0019.945 46.562l2.368 2.1a64.22 64.22 0 0041.358 15.122c33.487 0 61.637-26.24 64.021-59.683 1.751-16.371-3.051-37.077-11.24-61.7zM29.067 111.17a5.5 5.5 0 01-4.269 2.034c-3.018 0-5.487-2.484-5.487-5.502 0-3.017 2.485-5.501 5.487-5.501 1.25 0 2.485.433 3.452 1.234 2.351 1.9 2.718 5.384.817 7.735zm87.119-19.238c-15.843 21.122-49.68 14.003-71.376 15.02 0 0-3.852.234-7.721.867 0 0 1.45-.617 3.335-1.334 15.226-5.301 22.43-6.335 31.685-11.086 17.427-8.869 34.654-28.274 38.24-48.463-6.637 19.422-26.75 36.11-45.077 42.895-12.557 4.635-35.238 9.136-35.238 9.136l-.917-.484c-15.442-7.518-15.91-40.977 12.157-51.78 12.291-4.735 24.048-2.134 37.323-5.302 14.175-3.367 30.568-14.004 37.238-27.874 7.471 22.19 16.46 56.932.35 78.405z" fill="#77bc1f"/>
    </symbol>
    <symbol id="icon-bootstrap" viewBox="0 0 128 128"><defs><linearGradient id="a" x1="76.079" x2="523.48" y1="10.798" y2="365.95" gradientTransform="translate(1.11 14.613) scale(.24566)" gradientUnits="userSpaceOnUse"><stop offset="0" stop-color="#9013fe"/><stop offset="1" stop-color="#6610f2"/></linearGradient><linearGradient id="b" x1="193.51" x2="293.51" y1="109.74" y2="278.87" gradientTransform="translate(0 52)" gradientUnits="userSpaceOnUse"><stop offset="0" stop-color="#fff"/><stop offset="1" stop-color="#f1e5fc"/></linearGradient><filter id="c" width="197" height="249" x="161.9" y="135.46" color-interpolation-filters="sRGB" filterUnits="userSpaceOnUse"><feFlood flood-opacity="0" result="BackgroundImageFix"/><feColorMatrix in="SourceAlpha" values="0 0 0 0 0 0 0 0 0 0 0 0 0 0 0 0 0 0 127 0"/><feOffset dy="4"/><feGaussianBlur stdDeviation="8"/><feColorMatrix values="0 0 0 0 0 0 0 0 0 0 0 0 0 0 0 0 0 0 0.15 0"/><feBlend in2="BackgroundImageFix" result="effect1_dropShadow"/><feBlend in="SourceGraphic" in2="effect1_dropShadow" result="shape"/></filter></defs><path fill="url(#a)" d="M14.985 27.712c-.237-6.815 5.072-13.099 12.249-13.099h73.54c7.177 0 12.486 6.284 12.249 13.099-.228 6.546.068 15.026 2.202 21.94 2.141 6.936 5.751 11.319 11.664 11.883v6.387c-5.913.564-9.523 4.947-11.664 11.883-2.134 6.914-2.43 15.394-2.202 21.94.237 6.815-5.072 13.098-12.249 13.098h-73.54c-7.177 0-12.486-6.284-12.249-13.098.228-6.546-.068-15.026-2.203-21.94-2.14-6.935-5.76-11.319-11.673-11.883v-6.387c5.913-.563 9.533-4.947 11.673-11.883 2.135-6.914 2.43-15.394 2.203-21.94z"/><path fill="url(#b)" d="M267.1 364.46c47.297 0 75.798-23.158 75.798-61.355 0-28.873-20.336-49.776-50.532-53.085v-1.203c22.185-3.609 39.594-24.211 39.594-47.219 0-32.783-25.882-54.138-65.322-54.138h-88.74v217zm-54.692-189.48h45.911c24.958 0 39.131 11.128 39.131 31.279 0 21.505-16.484 33.535-46.372 33.535h-38.67zm0 161.96v-71.431h45.602c32.661 0 49.608 12.03 49.608 35.49 0 23.459-16.484 35.941-47.605 35.941z" filter="url(#c)" transform="translate(1.494 2.203) scale(.24566)"/></symbol>
    <symbol viewBox="0 0 128 128" id="icon-cplusplus">
  <path fill="#00599c" d="M118.766 95.82c.89-1.543 1.441-3.28 1.441-4.843V36.78c0-1.558-.55-3.297-1.441-4.84l-55.32 31.94Zm0 0"/>
  <path fill="#004482" d="m68.36 126.586 46.933-27.094c1.352-.781 2.582-2.129 3.473-3.672l-55.32-31.94L8.12 95.82c.89 1.543 2.121 2.89 3.473 3.672l46.933 27.094c2.703 1.562 7.13 1.562 9.832 0Zm0 0"/>
  <path fill="#659ad2" d="M118.766 31.941c-.891-1.546-2.121-2.894-3.473-3.671L68.359 1.172c-2.703-1.563-7.129-1.563-9.832 0L11.594 28.27C8.89 29.828 6.68 33.66 6.68 36.78v54.196c0 1.562.55 3.3 1.441 4.843L63.445 63.88Zm0 0"/>
  <path fill="#fff" d="M63.445 26.035c-20.867 0-37.843 16.977-37.843 37.844s16.976 37.844 37.843 37.844c13.465 0 26.024-7.247 32.77-18.91L79.84 73.335c-3.38 5.84-9.66 9.465-16.395 9.465-10.433 0-18.922-8.488-18.922-18.922 0-10.434 8.49-18.922 18.922-18.922 6.73 0 13.017 3.629 16.39 9.465l16.38-9.477c-6.75-11.664-19.305-18.91-32.77-18.91zM92.88 57.57v4.207h-4.207v4.203h4.207v4.207h4.203V65.98h4.203v-4.203h-4.203V57.57H92.88zm15.766 0v4.207h-4.204v4.203h4.204v4.207h4.207V65.98h4.203v-4.203h-4.203V57.57h-4.207z"/>
</symbol>
<symbol id="icon-.net" viewBox="0 0 128 128"><linearGradient id="dot-net-original-a" gradientUnits="userSpaceOnUse" x1="61.631" y1="563.347" x2="62.022" y2="563.347" gradientTransform="matrix(0 149.735 149.735 0 -84296.266 -9188.014)"><stop offset="0" stop-color="#0994DC"/><stop offset=".35" stop-color="#66CEF5"/><stop offset=".35" stop-color="#66CEF5"/><stop offset=".846" stop-color="#127BCA"/><stop offset=".846" stop-color="#127BCA"/><stop offset="1" stop-color="#127BCA"/></linearGradient><path fill="url(#dot-net-original-a)" d="M45.288 49.559c4.417 13.507 6.09 37.601 19.006 37.601.982 0 1.977-.096 2.974-.286-11.74-2.737-13.132-26.569-20.297-38.912a61.601 61.601 0 00-1.683 1.597"/><linearGradient id="dot-net-original-b" gradientUnits="userSpaceOnUse" x1="61.705" y1="563.34" x2="62.095" y2="563.34" gradientTransform="matrix(0 153.551 153.551 0 -86442.719 -9435.969)"><stop offset="0" stop-color="#0E76BC"/><stop offset=".36" stop-color="#36AEE8"/><stop offset=".36" stop-color="#36AEE8"/><stop offset=".846" stop-color="#00ADEF"/><stop offset=".846" stop-color="#00ADEF"/><stop offset="1" stop-color="#00ADEF"/></linearGradient><path fill="url(#dot-net-original-b)" d="M46.971 47.962c7.165 12.342 8.557 36.174 20.297 38.912a18.621 18.621 0 002.773-.749C59.502 80.961 56.59 57.819 48.453 46.678c-.492.41-.987.839-1.482 1.284"/><path fill="#14559A" d="M57.294 40.623c-.98 0-1.977.096-2.977.286-2.612.493-5.268 1.618-7.944 3.321.73.722 1.427 1.547 2.081 2.448 2.723-2.259 5.427-3.928 8.12-4.932a18.177 18.177 0 013.029-.842 9.393 9.393 0 00-2.309-.281"/><linearGradient id="dot-net-original-c" gradientUnits="userSpaceOnUse" x1="67.486" y1="564.985" x2="67.876" y2="564.985" gradientTransform="matrix(0 -122.178 -122.178 0 69099.289 8331.043)"><stop offset="0" stop-color="#1C63B7"/><stop offset=".5" stop-color="#33BDF2"/><stop offset="1" stop-color="#33BDF2" stop-opacity=".42"/></linearGradient><path fill="url(#dot-net-original-c)" d="M78.268 81.366a47.16 47.16 0 003.24-2.84c-4.488-13.443-6.095-37.883-19.101-37.883-.93 0-1.868.087-2.804.26C71.45 43.85 72.968 69.625 78.268 81.366"/><path fill="#3092C4" d="M59.604 40.904a9.355 9.355 0 00-2.311-.282l5.114.019c-.929 0-1.867.086-2.803.263"/><path fill="#1969BC" d="M78.04 84.221a19.441 19.441 0 01-1.466-1.584c-2.188 1.549-4.368 2.724-6.533 3.489.771.376 1.578.656 2.436.829.664.136 1.353.206 2.075.206 2.431 0 4.353-.288 5.987-1.072-.9-.488-1.726-1.118-2.499-1.868"/><linearGradient id="dot-net-original-d" gradientUnits="userSpaceOnUse" x1="61.852" y1="563.281" x2="62.243" y2="563.281" gradientTransform="matrix(0 159.425 159.425 0 -89733.742 -9828.116)"><stop offset="0" stop-color="#166AB8"/><stop offset=".4" stop-color="#36AEE8"/><stop offset=".4" stop-color="#36AEE8"/><stop offset=".846" stop-color="#0798DD"/><stop offset=".846" stop-color="#0798DD"/><stop offset="1" stop-color="#0798DD"/></linearGradient><path fill="url(#dot-net-original-d)" d="M56.573 41.748c10.611 5.55 11.534 30.684 20.001 40.889.568-.4 1.13-.824 1.691-1.271-5.3-11.741-6.815-37.519-18.66-40.463-1.011.189-2.02.469-3.032.845"/><linearGradient id="dot-net-original-e" gradientUnits="userSpaceOnUse" x1="61.975" y1="563.367" x2="62.366" y2="563.367" gradientTransform="matrix(0 169.528 169.528 0 -95443.742 -10473.372)"><stop offset="0" stop-color="#124379"/><stop offset=".39" stop-color="#1487CB"/><stop offset=".39" stop-color="#1487CB"/><stop offset=".78" stop-color="#165197"/><stop offset=".78" stop-color="#165197"/><stop offset="1" stop-color="#165197"/></linearGradient><path fill="url(#dot-net-original-e)" d="M48.453 46.678c8.137 11.141 11.049 34.284 21.588 39.448 2.166-.765 4.346-1.939 6.533-3.489-8.467-10.205-9.39-35.338-20.001-40.889-2.693 1.002-5.397 2.671-8.12 4.93"/><linearGradient id="dot-net-original-f" gradientUnits="userSpaceOnUse" x1="1006.454" y1="-1412.08" x2="1008.771" y2="-1412.08" gradientTransform="matrix(4.038 0 0 -4.038 -4028.633 -5649.283)"><stop offset="0" stop-color="#33BDF2" stop-opacity=".698"/><stop offset="1" stop-color="#1DACD8"/></linearGradient><path fill="url(#dot-net-original-f)" d="M40.083 49.234c-1.275 2.883-2.578 6.674-4.152 11.621 3.131-4.413 6.253-8.214 9.357-11.295a33.873 33.873 0 00-1.382-3.606 46.113 46.113 0 00-3.823 3.28"/><path fill="#2B74B1" d="M45.037 45.121c-.374.268-.751.542-1.13.832.495 1.08.953 2.292 1.38 3.607a66.502 66.502 0 011.684-1.597 22.346 22.346 0 00-1.934-2.842"/><path fill="#125A9E" d="M46.373 44.229c-.445.282-.888.58-1.337.891.695.855 1.333 1.81 1.936 2.844.495-.448.989-.879 1.482-1.287-.654-.9-1.35-1.726-2.081-2.448"/><linearGradient id="dot-net-original-g" gradientUnits="userSpaceOnUse" x1="67.564" y1="565.48" x2="67.954" y2="565.48" gradientTransform="matrix(0 -119.018 -119.018 0 67408.578 8125.832)"><stop offset="0" stop-color="#136AB4"/><stop offset=".6" stop-color="#59CAF5" stop-opacity=".549"/><stop offset="1" stop-color="#59CAF5" stop-opacity=".235"/></linearGradient><path fill="url(#dot-net-original-g)" d="M118.751 39.594c-6.001 23.144-18.536 41.734-29.044 46.42h-.021l-.567.243-.069.027-.161.062-.072.03-.263.093-.108.038-.131.043-.126.044-.112.038-.224.068-.096.025-.151.041-.103.028-.165.043-.201.044c.475.175.97.264 1.503.264 9.965 0 20.013-17.858 36.638-47.556h-6.528l.001.005z"/><linearGradient id="dot-net-original-h" gradientUnits="userSpaceOnUse" x1="998.231" y1="-1414.829" x2="1006.826" y2="-1414.829" gradientTransform="matrix(4.038 0 0 -4.038 -4028.633 -5649.283)"><stop offset="0" stop-color="#05A1E6" stop-opacity=".247"/><stop offset="1" stop-color="#05A1E6"/></linearGradient><path fill="url(#dot-net-original-h)" d="M33.766 41.563l.019-.016.023-.015h.013l.161-.062.032-.016.042-.017.173-.062h.009l.383-.134.057-.015.164-.049.075-.024.165-.049.063-.017.548-.142.075-.017.16-.031.078-.024.161-.03h.038l.333-.062h.066l.154-.027.087-.015.147-.022.081-.016.358-.032a11.467 11.467 0 00-1.061-.054c-11.223 0-26.685 20.822-33.649 47.788h1.343a390.312 390.312 0 006.062-11.266c4.879-19.1 14.814-32.126 23.64-35.577"/><path fill="#0D82CA" d="M40.083 49.234a46.488 46.488 0 013.823-3.281 17.961 17.961 0 00-.911-1.761c-1.026 1.246-1.964 2.89-2.912 5.042"/><path fill="#0D82CA" d="M41.005 41.72c.733.614 1.39 1.46 1.99 2.473.189-.232.381-.447.58-.649a11.263 11.263 0 00-2.712-1.897l.12.057.022.016"/><linearGradient id="dot-net-original-i" gradientUnits="userSpaceOnUse" x1="67.491" y1="564.359" x2="67.881" y2="564.359" gradientTransform="matrix(0 -121.865 -121.865 0 68797.742 8310.488)"><stop offset="0" stop-color="#318ED5"/><stop offset="1" stop-color="#38A7E4"/></linearGradient><path fill="url(#dot-net-original-i)" d="M10.127 77.138c10.233-19.719 15.081-32.199 23.64-35.577-8.825 3.454-18.762 16.479-23.64 35.577"/><path fill="#127BCA" d="M43.574 43.544c-.199.204-.389.417-.58.649.322.538.621 1.124.913 1.76.378-.29.756-.563 1.129-.832a15.351 15.351 0 00-1.462-1.577"/><linearGradient id="dot-net-original-j" gradientUnits="userSpaceOnUse" x1="67.593" y1="564.41" x2="67.984" y2="564.41" gradientTransform="matrix(0 -118.46 -118.46 0 66884.703 8093.017)"><stop offset="0" stop-color="#05A1E6"/><stop offset="1" stop-color="#05A1E6" stop-opacity=".549"/></linearGradient><path fill="url(#dot-net-original-j)" d="M14.773 88.315l-.186.022h-.035l-.158.016h-.026l-.376.025h-.039c10.356-.29 15.091-5.475 17.44-12.997 1.785-5.701 3.252-10.505 4.537-14.535-4.338 6.106-8.696 13.384-13.077 21.539-2.112 3.93-5.325 5.572-8.08 5.922"/><linearGradient id="dot-net-original-k" gradientUnits="userSpaceOnUse" x1="68.291" y1="564.525" x2="68.682" y2="564.525" gradientTransform="matrix(0 -100.1 -100.1 0 56536.551 6924.301)"><stop offset="0" stop-color="#1959A6"/><stop offset=".5" stop-color="#05A1E6"/><stop offset=".5" stop-color="#05A1E6"/><stop offset=".918" stop-color="#7EC5EA"/><stop offset="1" stop-color="#7EC5EA"/></linearGradient><path fill="url(#dot-net-original-k)" d="M14.773 88.311c2.755-.351 5.968-1.991 8.08-5.923 4.381-8.151 8.741-15.431 13.075-21.538 1.577-4.949 2.878-8.737 4.154-11.621-8.639 8.223-17.311 21.896-25.31 39.077"/><path fill="#05A1E6" d="M10.127 77.139a388.004 388.004 0 01-6.063 11.266h3.904a95.502 95.502 0 012.158-11.264"/><linearGradient id="dot-net-original-l" gradientUnits="userSpaceOnUse" x1="67.892" y1="563.82" x2="68.282" y2="563.82" gradientTransform="scale(-110.211 110.211) rotate(-80 -301.688 322.91)"><stop offset="0" stop-color="#165096"/><stop offset="1" stop-color="#0D82CA"/></linearGradient><path fill="url(#dot-net-original-l)" d="M37.073 40.709l-.083.016-.146.021-.086.015-.154.027-.066.016-.333.058h-.038l-.162.032-.081.022-.157.031-.074.018-.549.142-.063.018-.166.049-.075.021-.163.049-.06.016-.381.134-.173.06-.072.03-.161.06-.054.026c-8.558 3.377-13.406 15.857-23.639 35.576A94.655 94.655 0 007.979 88.41h.547l3.755-.016h1.723l.375-.025h.024l.158-.016h.037l.186-.022c8-17.182 16.672-30.854 25.31-39.077.95-2.152 1.887-3.796 2.911-5.04-.6-1.013-1.256-1.861-1.988-2.476l-.021-.016-.122-.059-.121-.061-.117-.057-.139-.058-.108-.047-.227-.095-.097-.036-.169-.068-.091-.03-.235-.081h-.019l-.272-.077-.061-.019-.229-.064-.053-.015a7.851 7.851 0 00-.569-.125l-.059-.016-.247-.04-.049-.015-.292-.039h-.051l-.226-.025-.358.033"/><linearGradient id="dot-net-original-m" gradientUnits="userSpaceOnUse" x1="70.847" y1="566.882" x2="71.237" y2="566.882" gradientTransform="matrix(0 -56.721 -56.721 0 32252.127 4080.282)"><stop offset="0" stop-color="#05A1E6"/><stop offset=".874" stop-color="#0495D6"/><stop offset="1" stop-color="#0495D6"/></linearGradient><path fill="url(#dot-net-original-m)" d="M95.311 52.407c-1.97 6.307-3.563 11.51-4.952 15.791 5.403-7.435 10.725-16.787 15.792-27.579-5.913 1.857-9.065 6.107-10.84 11.788"/><linearGradient id="dot-net-original-n" gradientUnits="userSpaceOnUse" x1="61.634" y1="562.213" x2="62.024" y2="562.213" gradientTransform="scale(-132.813 132.813) rotate(80 365.248 244.034)"><stop offset="0" stop-color="#38A7E4" stop-opacity=".329"/><stop offset=".962" stop-color="#0E88D3"/><stop offset=".962" stop-color="#0E88D3"/><stop offset="1" stop-color="#0E88D3"/></linearGradient><path fill="url(#dot-net-original-n)" d="M90.53 85.621c-.275.14-.552.273-.823.394 10.508-4.687 23.044-23.277 29.044-46.421h-1.216c-13.788 24.631-18.222 41.12-27.005 46.027"/><path fill="#079AE1" d="M83.668 83.552c2.287-2.791 4.148-7.535 6.691-15.354-2.933 4.029-5.885 7.492-8.84 10.316l-.015.025c.645 1.931 1.352 3.636 2.158 5.012"/><path fill="#1969BC" d="M83.668 83.552c-.778.95-1.603 1.673-2.519 2.209-.2.117-.404.227-.61.327a8.839 8.839 0 003.206 1.011l.524.046h.031l.252.016h.855l.097-.016.189-.016h.092l.205-.022h.017l.063-.015.219-.034h.064l.246-.041h.04l.491-.104c-1.357-.496-2.492-1.667-3.469-3.334"/><path fill="#1E5CB3" d="M64.295 87.161c.982 0 1.976-.096 2.973-.288a18.309 18.309 0 002.773-.747c.771.376 1.579.656 2.435.831.664.135 1.354.205 2.077.205H64.295zM74.553 87.161c2.429 0 4.353-.288 5.986-1.073a8.84 8.84 0 003.206 1.012l.524.045h.031l.252.016h.302-10.301z"/><path fill="#1D60B5" d="M84.854 87.161h.561l.097-.016.191-.016h.092l.204-.022h.017l.062-.016.219-.033.067-.015.247-.04h.039l.491-.104c.475.175.97.264 1.503.264l-3.788.016-.002-.018z"/><path fill="#175FAB" d="M81.511 78.54v-.016a47.16 47.16 0 01-3.24 2.84 36.81 36.81 0 01-1.693 1.271c.476.568.959 1.1 1.468 1.585.772.749 1.597 1.38 2.498 1.867.205-.101.41-.211.609-.327.918-.536 1.741-1.26 2.52-2.209-.806-1.376-1.513-3.082-2.157-5.012"/><linearGradient id="dot-net-original-o" gradientUnits="userSpaceOnUse" x1="61.149" y1="562.654" x2="61.539" y2="562.654" gradientTransform="matrix(0 123.742 123.742 0 -69523.625 -7527.189)"><stop offset="0" stop-color="#168CD4"/><stop offset=".5" stop-color="#1C87CC"/><stop offset="1" stop-color="#154B8D"/></linearGradient><path fill="url(#dot-net-original-o)" d="M113.685 39.594h-6.121l-.97.047-.451.966c-5.068 10.793-10.388 20.145-15.791 27.58-2.54 7.818-4.404 12.563-6.69 15.353.977 1.668 2.114 2.84 3.466 3.337l.106-.023h.022l.075-.016.17-.042.101-.029.151-.039.094-.027.226-.068.112-.038.126-.046.13-.041.106-.04.264-.093.073-.027.162-.063.068-.025.568-.243h.02c.271-.119.547-.254.821-.394 8.785-4.908 13.22-21.396 27.008-46.026h-3.851l.005-.003z"/><path fill="#7DCBEC" d="M37.433 40.677l.063.016.16.017h.054l.292.038.049.016.246.041.062.015.567.126.052.016.228.064.063.019.271.077.021.016.237.081.09.029.17.069.096.034.226.094.11.047.136.059.12.057.119.062c.979.48 1.879 1.121 2.713 1.898.308-.323.628-.613.962-.874-1.823-1.293-3.89-2.03-6.271-2.03-.276 0-.552.016-.832.037"/><path fill="#5EC5ED" d="M43.574 43.544c.511.475 1 1.005 1.462 1.577.448-.311.892-.611 1.337-.891a14.13 14.13 0 00-1.839-1.56c-.333.26-.652.552-.96.874"/><g transform="matrix(5.048 0 0 -5.048 -9064.26 2270.61)"><linearGradient id="dot-net-original-p" gradientUnits="userSpaceOnUse" x1="1806.96" y1="336.158" x2="1807.35" y2="336.158" gradientTransform="scale(30.857 -30.857) rotate(22.527 1812.675 -4228.953)"><stop offset="0" stop-color="#97D6EE"/><stop offset=".703" stop-color="#55C1EA"/><stop offset="1" stop-color="#55C1EA"/></linearGradient><path fill="url(#dot-net-original-p)" d="M1802.977 441.733l.165.007c.472 0 .881-.146 1.242-.402.381.301.842.406 1.482.406h-3.099l.21-.011"/></g><g transform="matrix(5.048 0 0 -5.048 -9064.26 2270.61)"><linearGradient id="dot-net-original-q" gradientUnits="userSpaceOnUse" x1="1808.848" y1="335.171" x2="1809.238" y2="335.171" gradientTransform="scale(24.717 -24.717) rotate(-24.385 124.122 4175.416)"><stop offset="0" stop-color="#7ACCEC"/><stop offset="1" stop-color="#3FB7ED"/></linearGradient><path fill="url(#dot-net-original-q)" d="M1805.866 441.744c-.64 0-1.1-.105-1.482-.406.126-.089.248-.193.364-.309.531.337 1.056.561 1.574.658.198.037.395.056.589.056h-1.045v.001z"/></g><linearGradient id="dot-net-original-r" gradientUnits="userSpaceOnUse" x1="61.049" y1="562.706" x2="61.439" y2="562.706" gradientTransform="matrix(0 121.032 121.032 0 -68011.711 -7346.748)"><stop offset="0" stop-color="#1DA7E7"/><stop offset="1" stop-color="#37ABE7" stop-opacity="0"/></linearGradient><path fill="url(#dot-net-original-r)" d="M90.359 68.202c1.391-4.284 2.98-9.485 4.954-15.794 1.777-5.684 4.925-9.934 10.835-11.788l.456-.966c-9.636.577-14.14 5.479-16.405 12.738-3.964 12.673-6.365 20.888-8.677 26.123 2.952-2.823 5.904-6.288 8.837-10.313"/></symbol>
<symbol id="icon-azuredevops" viewBox="0 0 128 128">
    <defs>
        <linearGradient id="aa" gradientUnits="userSpaceOnUse" x1="9" y1="16.97" x2="9" y2="1.03">
            <stop offset="0" stop-color="#0078d4"/>
            <stop offset=".16" stop-color="#1380da"/>
            <stop offset=".53" stop-color="#3c91e5"/>
            <stop offset=".82" stop-color="#559cec"/>
            <stop offset="1" stop-color="#5ea0ef"/>
        </linearGradient>
    </defs>
    <path fill="url(#aa)" d="M120.89 28.445v69.262l-28.445 23.324-44.09-16.07v15.93L23.395 88.25l72.746 5.688V31.574ZM96.64 31.93 55.82 7.11v16.285L18.348 34.418 7.109 48.852v32.785l16.075 7.11V46.718Zm0 0"/>
</symbol>

</svg>
